<mxfile host="app.diagrams.net" modified="2023-11-18T11:49:41.350Z" agent="Mozilla/5.0 (X11; Ubuntu; Linux x86_64; rv:109.0) Gecko/20100101 Firefox/119.0" etag="cc6o6elXlS5_mMVJt0Yc" version="22.1.3" type="device">
  <diagram name="Page-1" id="jiCPMv0FtjQIA5FcWKKP">
    <mxGraphModel dx="2284" dy="822" grid="1" gridSize="10" guides="1" tooltips="1" connect="1" arrows="1" fold="1" page="1" pageScale="1" pageWidth="850" pageHeight="1100" math="0" shadow="0">
      <root>
        <mxCell id="0" />
        <mxCell id="1" parent="0" />
        <mxCell id="swc9gBFVzG4A3WIDZRH3-1" value="" style="ellipse;whiteSpace=wrap;html=1;aspect=fixed;" parent="1" vertex="1">
          <mxGeometry x="222.5" y="320" width="55" height="55" as="geometry" />
        </mxCell>
        <mxCell id="swc9gBFVzG4A3WIDZRH3-2" value="" style="ellipse;whiteSpace=wrap;html=1;aspect=fixed;fillColor=#ffffff;" parent="1" vertex="1">
          <mxGeometry x="190" y="320" width="55" height="55" as="geometry" />
        </mxCell>
        <mxCell id="swc9gBFVzG4A3WIDZRH3-3" value="" style="whiteSpace=wrap;html=1;shape=mxgraph.basic.pointed_oval;fillColor=#ffbe6f;fontColor=#ffffff;strokeColor=#001DBC;" parent="1" vertex="1">
          <mxGeometry x="216" y="326" width="39" height="43" as="geometry" />
        </mxCell>
        <mxCell id="swc9gBFVzG4A3WIDZRH3-4" value="" style="shape=table;startSize=0;container=1;collapsible=0;childLayout=tableLayout;" parent="1" vertex="1">
          <mxGeometry x="-270" y="60" width="110" height="350" as="geometry" />
        </mxCell>
        <mxCell id="swc9gBFVzG4A3WIDZRH3-5" value="" style="shape=tableRow;horizontal=0;startSize=0;swimlaneHead=0;swimlaneBody=0;strokeColor=inherit;top=0;left=0;bottom=0;right=0;collapsible=0;dropTarget=0;fillColor=none;points=[[0,0.5],[1,0.5]];portConstraint=eastwest;" parent="swc9gBFVzG4A3WIDZRH3-4" vertex="1">
          <mxGeometry width="110" height="40" as="geometry" />
        </mxCell>
        <mxCell id="swc9gBFVzG4A3WIDZRH3-6" value="&lt;font style=&quot;font-size: 14px;&quot;&gt;order_id&lt;/font&gt;" style="shape=partialRectangle;html=1;whiteSpace=wrap;connectable=0;strokeColor=inherit;overflow=hidden;fillColor=none;top=0;left=0;bottom=0;right=0;pointerEvents=1;" parent="swc9gBFVzG4A3WIDZRH3-5" vertex="1">
          <mxGeometry width="110" height="40" as="geometry">
            <mxRectangle width="110" height="40" as="alternateBounds" />
          </mxGeometry>
        </mxCell>
        <mxCell id="swc9gBFVzG4A3WIDZRH3-7" value="" style="shape=tableRow;horizontal=0;startSize=0;swimlaneHead=0;swimlaneBody=0;strokeColor=inherit;top=0;left=0;bottom=0;right=0;collapsible=0;dropTarget=0;fillColor=none;points=[[0,0.5],[1,0.5]];portConstraint=eastwest;" parent="swc9gBFVzG4A3WIDZRH3-4" vertex="1">
          <mxGeometry y="40" width="110" height="30" as="geometry" />
        </mxCell>
        <mxCell id="swc9gBFVzG4A3WIDZRH3-8" value="&lt;font style=&quot;font-size: 14px;&quot;&gt;order_ts&lt;/font&gt;" style="shape=partialRectangle;html=1;whiteSpace=wrap;connectable=0;strokeColor=inherit;overflow=hidden;fillColor=none;top=0;left=0;bottom=0;right=0;pointerEvents=1;" parent="swc9gBFVzG4A3WIDZRH3-7" vertex="1">
          <mxGeometry width="110" height="30" as="geometry">
            <mxRectangle width="110" height="30" as="alternateBounds" />
          </mxGeometry>
        </mxCell>
        <mxCell id="swc9gBFVzG4A3WIDZRH3-9" value="" style="shape=tableRow;horizontal=0;startSize=0;swimlaneHead=0;swimlaneBody=0;strokeColor=inherit;top=0;left=0;bottom=0;right=0;collapsible=0;dropTarget=0;fillColor=none;points=[[0,0.5],[1,0.5]];portConstraint=eastwest;" parent="swc9gBFVzG4A3WIDZRH3-4" vertex="1">
          <mxGeometry y="70" width="110" height="40" as="geometry" />
        </mxCell>
        <mxCell id="swc9gBFVzG4A3WIDZRH3-10" value="&lt;font style=&quot;font-size: 14px;&quot;&gt;user_id&lt;/font&gt;" style="shape=partialRectangle;html=1;whiteSpace=wrap;connectable=0;strokeColor=inherit;overflow=hidden;fillColor=none;top=0;left=0;bottom=0;right=0;pointerEvents=1;" parent="swc9gBFVzG4A3WIDZRH3-9" vertex="1">
          <mxGeometry width="110" height="40" as="geometry">
            <mxRectangle width="110" height="40" as="alternateBounds" />
          </mxGeometry>
        </mxCell>
        <mxCell id="swc9gBFVzG4A3WIDZRH3-11" value="" style="shape=tableRow;horizontal=0;startSize=0;swimlaneHead=0;swimlaneBody=0;strokeColor=inherit;top=0;left=0;bottom=0;right=0;collapsible=0;dropTarget=0;fillColor=none;points=[[0,0.5],[1,0.5]];portConstraint=eastwest;" parent="swc9gBFVzG4A3WIDZRH3-4" vertex="1">
          <mxGeometry y="110" width="110" height="40" as="geometry" />
        </mxCell>
        <mxCell id="swc9gBFVzG4A3WIDZRH3-12" value="&lt;font style=&quot;font-size: 14px;&quot;&gt;bonus_payment&lt;/font&gt;" style="shape=partialRectangle;html=1;whiteSpace=wrap;connectable=0;strokeColor=inherit;overflow=hidden;fillColor=none;top=0;left=0;bottom=0;right=0;pointerEvents=1;" parent="swc9gBFVzG4A3WIDZRH3-11" vertex="1">
          <mxGeometry width="110" height="40" as="geometry">
            <mxRectangle width="110" height="40" as="alternateBounds" />
          </mxGeometry>
        </mxCell>
        <mxCell id="swc9gBFVzG4A3WIDZRH3-13" value="" style="shape=tableRow;horizontal=0;startSize=0;swimlaneHead=0;swimlaneBody=0;strokeColor=inherit;top=0;left=0;bottom=0;right=0;collapsible=0;dropTarget=0;fillColor=none;points=[[0,0.5],[1,0.5]];portConstraint=eastwest;" parent="swc9gBFVzG4A3WIDZRH3-4" vertex="1">
          <mxGeometry y="150" width="110" height="40" as="geometry" />
        </mxCell>
        <mxCell id="swc9gBFVzG4A3WIDZRH3-14" value="&lt;font style=&quot;font-size: 14px;&quot;&gt;payment&lt;/font&gt;" style="shape=partialRectangle;html=1;whiteSpace=wrap;connectable=0;strokeColor=inherit;overflow=hidden;fillColor=none;top=0;left=0;bottom=0;right=0;pointerEvents=1;" parent="swc9gBFVzG4A3WIDZRH3-13" vertex="1">
          <mxGeometry width="110" height="40" as="geometry">
            <mxRectangle width="110" height="40" as="alternateBounds" />
          </mxGeometry>
        </mxCell>
        <mxCell id="swc9gBFVzG4A3WIDZRH3-15" style="shape=tableRow;horizontal=0;startSize=0;swimlaneHead=0;swimlaneBody=0;strokeColor=inherit;top=0;left=0;bottom=0;right=0;collapsible=0;dropTarget=0;fillColor=none;points=[[0,0.5],[1,0.5]];portConstraint=eastwest;" parent="swc9gBFVzG4A3WIDZRH3-4" vertex="1">
          <mxGeometry y="190" width="110" height="40" as="geometry" />
        </mxCell>
        <mxCell id="swc9gBFVzG4A3WIDZRH3-16" value="&lt;font style=&quot;font-size: 14px;&quot;&gt;cost&lt;/font&gt;" style="shape=partialRectangle;html=1;whiteSpace=wrap;connectable=0;strokeColor=inherit;overflow=hidden;fillColor=none;top=0;left=0;bottom=0;right=0;pointerEvents=1;" parent="swc9gBFVzG4A3WIDZRH3-15" vertex="1">
          <mxGeometry width="110" height="40" as="geometry">
            <mxRectangle width="110" height="40" as="alternateBounds" />
          </mxGeometry>
        </mxCell>
        <mxCell id="swc9gBFVzG4A3WIDZRH3-17" style="shape=tableRow;horizontal=0;startSize=0;swimlaneHead=0;swimlaneBody=0;strokeColor=inherit;top=0;left=0;bottom=0;right=0;collapsible=0;dropTarget=0;fillColor=none;points=[[0,0.5],[1,0.5]];portConstraint=eastwest;" parent="swc9gBFVzG4A3WIDZRH3-4" vertex="1">
          <mxGeometry y="230" width="110" height="40" as="geometry" />
        </mxCell>
        <mxCell id="swc9gBFVzG4A3WIDZRH3-18" value="&lt;font style=&quot;font-size: 14px;&quot;&gt;bonus_grant&lt;/font&gt;" style="shape=partialRectangle;html=1;whiteSpace=wrap;connectable=0;strokeColor=inherit;overflow=hidden;fillColor=none;top=0;left=0;bottom=0;right=0;pointerEvents=1;" parent="swc9gBFVzG4A3WIDZRH3-17" vertex="1">
          <mxGeometry width="110" height="40" as="geometry">
            <mxRectangle width="110" height="40" as="alternateBounds" />
          </mxGeometry>
        </mxCell>
        <mxCell id="swc9gBFVzG4A3WIDZRH3-19" style="shape=tableRow;horizontal=0;startSize=0;swimlaneHead=0;swimlaneBody=0;strokeColor=inherit;top=0;left=0;bottom=0;right=0;collapsible=0;dropTarget=0;fillColor=none;points=[[0,0.5],[1,0.5]];portConstraint=eastwest;" parent="swc9gBFVzG4A3WIDZRH3-4" vertex="1">
          <mxGeometry y="270" width="110" height="40" as="geometry" />
        </mxCell>
        <mxCell id="swc9gBFVzG4A3WIDZRH3-20" value="&lt;font style=&quot;font-size: 14px;&quot;&gt;status_id&lt;/font&gt;" style="shape=partialRectangle;html=1;whiteSpace=wrap;connectable=0;strokeColor=inherit;overflow=hidden;fillColor=none;top=0;left=0;bottom=0;right=0;pointerEvents=1;" parent="swc9gBFVzG4A3WIDZRH3-19" vertex="1">
          <mxGeometry width="110" height="40" as="geometry">
            <mxRectangle width="110" height="40" as="alternateBounds" />
          </mxGeometry>
        </mxCell>
        <mxCell id="swc9gBFVzG4A3WIDZRH3-21" style="shape=tableRow;horizontal=0;startSize=0;swimlaneHead=0;swimlaneBody=0;strokeColor=inherit;top=0;left=0;bottom=0;right=0;collapsible=0;dropTarget=0;fillColor=none;points=[[0,0.5],[1,0.5]];portConstraint=eastwest;" parent="swc9gBFVzG4A3WIDZRH3-4" vertex="1">
          <mxGeometry y="310" width="110" height="40" as="geometry" />
        </mxCell>
        <mxCell id="swc9gBFVzG4A3WIDZRH3-22" value="&lt;font style=&quot;font-size: 14px;&quot;&gt;key&lt;/font&gt;" style="shape=partialRectangle;html=1;whiteSpace=wrap;connectable=0;strokeColor=inherit;overflow=hidden;fillColor=none;top=0;left=0;bottom=0;right=0;pointerEvents=1;" parent="swc9gBFVzG4A3WIDZRH3-21" vertex="1">
          <mxGeometry width="110" height="40" as="geometry">
            <mxRectangle width="110" height="40" as="alternateBounds" />
          </mxGeometry>
        </mxCell>
        <mxCell id="swc9gBFVzG4A3WIDZRH3-23" value="&lt;font style=&quot;font-size: 14px;&quot;&gt;production.orders&lt;/font&gt;" style="rounded=1;whiteSpace=wrap;html=1;" parent="1" vertex="1">
          <mxGeometry x="-40" y="200" width="120" height="60" as="geometry" />
        </mxCell>
        <mxCell id="swc9gBFVzG4A3WIDZRH3-24" value="" style="endArrow=classic;html=1;rounded=0;exitX=0.991;exitY=0.471;exitDx=0;exitDy=0;exitPerimeter=0;" parent="1" source="swc9gBFVzG4A3WIDZRH3-4" edge="1">
          <mxGeometry width="50" height="50" relative="1" as="geometry">
            <mxPoint x="400" y="360" as="sourcePoint" />
            <mxPoint x="-40" y="225" as="targetPoint" />
          </mxGeometry>
        </mxCell>
        <mxCell id="swc9gBFVzG4A3WIDZRH3-25" value="" style="endArrow=none;html=1;rounded=0;exitX=1;exitY=0.5;exitDx=0;exitDy=0;" parent="1" edge="1">
          <mxGeometry width="50" height="50" relative="1" as="geometry">
            <mxPoint x="-160" y="81" as="sourcePoint" />
            <mxPoint x="-80" y="81" as="targetPoint" />
            <Array as="points">
              <mxPoint x="-80" y="81" />
              <mxPoint x="-80" y="230" />
            </Array>
          </mxGeometry>
        </mxCell>
        <mxCell id="swc9gBFVzG4A3WIDZRH3-26" value="" style="endArrow=none;html=1;rounded=0;" parent="1" edge="1">
          <mxGeometry width="50" height="50" relative="1" as="geometry">
            <mxPoint x="-160" y="121" as="sourcePoint" />
            <mxPoint x="-80" y="121" as="targetPoint" />
          </mxGeometry>
        </mxCell>
        <mxCell id="swc9gBFVzG4A3WIDZRH3-27" value="" style="endArrow=none;html=1;rounded=0;" parent="1" edge="1">
          <mxGeometry width="50" height="50" relative="1" as="geometry">
            <mxPoint x="-160" y="161" as="sourcePoint" />
            <mxPoint x="-80" y="161" as="targetPoint" />
          </mxGeometry>
        </mxCell>
        <mxCell id="swc9gBFVzG4A3WIDZRH3-28" value="" style="endArrow=none;html=1;rounded=0;exitX=1.018;exitY=0.371;exitDx=0;exitDy=0;exitPerimeter=0;" parent="1" source="swc9gBFVzG4A3WIDZRH3-4" edge="1">
          <mxGeometry width="50" height="50" relative="1" as="geometry">
            <mxPoint x="400" y="360" as="sourcePoint" />
            <mxPoint x="-80" y="190" as="targetPoint" />
          </mxGeometry>
        </mxCell>
        <mxCell id="swc9gBFVzG4A3WIDZRH3-31" value="" style="endArrow=none;html=1;rounded=0;exitX=1.018;exitY=0.72;exitDx=0;exitDy=0;exitPerimeter=0;" parent="1" source="swc9gBFVzG4A3WIDZRH3-4" edge="1">
          <mxGeometry width="50" height="50" relative="1" as="geometry">
            <mxPoint x="400" y="360" as="sourcePoint" />
            <mxPoint x="-80" y="230" as="targetPoint" />
            <Array as="points">
              <mxPoint x="-80" y="312" />
            </Array>
          </mxGeometry>
        </mxCell>
        <mxCell id="swc9gBFVzG4A3WIDZRH3-32" value="" style="endArrow=none;html=1;rounded=0;exitX=1;exitY=0.5;exitDx=0;exitDy=0;" parent="1" source="swc9gBFVzG4A3WIDZRH3-15" edge="1">
          <mxGeometry width="50" height="50" relative="1" as="geometry">
            <mxPoint x="400" y="360" as="sourcePoint" />
            <mxPoint x="-80" y="270" as="targetPoint" />
          </mxGeometry>
        </mxCell>
        <mxCell id="swc9gBFVzG4A3WIDZRH3-33" value="&lt;font style=&quot;font-size: 14px;&quot;&gt;production.orderstatuslog&lt;/font&gt;" style="rounded=1;whiteSpace=wrap;html=1;" parent="1" vertex="1">
          <mxGeometry x="-65" y="320" width="170" height="60" as="geometry" />
        </mxCell>
        <mxCell id="swc9gBFVzG4A3WIDZRH3-34" value="" style="endArrow=classic;html=1;rounded=0;exitX=1;exitY=0.5;exitDx=0;exitDy=0;entryX=0;entryY=0.5;entryDx=0;entryDy=0;" parent="1" source="swc9gBFVzG4A3WIDZRH3-19" target="swc9gBFVzG4A3WIDZRH3-33" edge="1">
          <mxGeometry width="50" height="50" relative="1" as="geometry">
            <mxPoint x="400" y="360" as="sourcePoint" />
            <mxPoint x="450" y="310" as="targetPoint" />
          </mxGeometry>
        </mxCell>
        <mxCell id="swc9gBFVzG4A3WIDZRH3-36" value="JOIN" style="rounded=1;whiteSpace=wrap;html=1;fillColor=#d5e8d4;strokeColor=#82b366;" parent="1" vertex="1">
          <mxGeometry x="110" y="250" width="140" height="60" as="geometry" />
        </mxCell>
        <mxCell id="swc9gBFVzG4A3WIDZRH3-37" value="" style="endArrow=classic;html=1;rounded=0;exitX=1;exitY=0.5;exitDx=0;exitDy=0;" parent="1" source="swc9gBFVzG4A3WIDZRH3-23" edge="1">
          <mxGeometry width="50" height="50" relative="1" as="geometry">
            <mxPoint x="400" y="360" as="sourcePoint" />
            <mxPoint x="180" y="250" as="targetPoint" />
            <Array as="points">
              <mxPoint x="180" y="230" />
              <mxPoint x="180" y="250" />
            </Array>
          </mxGeometry>
        </mxCell>
        <mxCell id="swc9gBFVzG4A3WIDZRH3-38" value="" style="endArrow=classic;html=1;rounded=0;exitX=1;exitY=0.5;exitDx=0;exitDy=0;" parent="1" source="swc9gBFVzG4A3WIDZRH3-33" edge="1">
          <mxGeometry width="50" height="50" relative="1" as="geometry">
            <mxPoint x="400" y="360" as="sourcePoint" />
            <mxPoint x="180" y="310" as="targetPoint" />
            <Array as="points">
              <mxPoint x="180" y="350" />
              <mxPoint x="180" y="310" />
            </Array>
          </mxGeometry>
        </mxCell>
        <mxCell id="swc9gBFVzG4A3WIDZRH3-39" value="&lt;font style=&quot;font-size: 14px;&quot;&gt;production.orderstatuses&lt;/font&gt;" style="rounded=1;whiteSpace=wrap;html=1;" parent="1" vertex="1">
          <mxGeometry x="-60" y="410" width="160" height="60" as="geometry" />
        </mxCell>
        <mxCell id="swc9gBFVzG4A3WIDZRH3-40" value="" style="endArrow=classic;html=1;rounded=0;entryX=0;entryY=0.667;entryDx=0;entryDy=0;entryPerimeter=0;" parent="1" target="swc9gBFVzG4A3WIDZRH3-39" edge="1">
          <mxGeometry width="50" height="50" relative="1" as="geometry">
            <mxPoint x="-220" y="410" as="sourcePoint" />
            <mxPoint x="450" y="310" as="targetPoint" />
            <Array as="points">
              <mxPoint x="-220" y="450" />
            </Array>
          </mxGeometry>
        </mxCell>
        <mxCell id="swc9gBFVzG4A3WIDZRH3-41" value="JOIN" style="rounded=1;whiteSpace=wrap;html=1;fillColor=#d5e8d4;strokeColor=#82b366;" parent="1" vertex="1">
          <mxGeometry x="370" y="309" width="140" height="60" as="geometry" />
        </mxCell>
        <mxCell id="swc9gBFVzG4A3WIDZRH3-42" value="" style="endArrow=classic;html=1;rounded=0;exitX=1;exitY=0.5;exitDx=0;exitDy=0;" parent="1" source="swc9gBFVzG4A3WIDZRH3-36" edge="1">
          <mxGeometry width="50" height="50" relative="1" as="geometry">
            <mxPoint x="400" y="360" as="sourcePoint" />
            <mxPoint x="440" y="310" as="targetPoint" />
            <Array as="points">
              <mxPoint x="440" y="280" />
              <mxPoint x="440" y="310" />
            </Array>
          </mxGeometry>
        </mxCell>
        <mxCell id="swc9gBFVzG4A3WIDZRH3-43" value="" style="endArrow=classic;html=1;rounded=0;exitX=1;exitY=0.5;exitDx=0;exitDy=0;" parent="1" source="swc9gBFVzG4A3WIDZRH3-39" edge="1">
          <mxGeometry width="50" height="50" relative="1" as="geometry">
            <mxPoint x="400" y="360" as="sourcePoint" />
            <mxPoint x="440" y="370" as="targetPoint" />
            <Array as="points">
              <mxPoint x="440" y="440" />
              <mxPoint x="440" y="370" />
            </Array>
          </mxGeometry>
        </mxCell>
        <mxCell id="swc9gBFVzG4A3WIDZRH3-44" value="" style="ellipse;whiteSpace=wrap;html=1;aspect=fixed;" parent="1" vertex="1">
          <mxGeometry x="482.5" y="380" width="55" height="55" as="geometry" />
        </mxCell>
        <mxCell id="swc9gBFVzG4A3WIDZRH3-45" value="" style="ellipse;whiteSpace=wrap;html=1;aspect=fixed;fillColor=#ffffff;" parent="1" vertex="1">
          <mxGeometry x="450" y="380" width="55" height="55" as="geometry" />
        </mxCell>
        <mxCell id="swc9gBFVzG4A3WIDZRH3-46" value="" style="whiteSpace=wrap;html=1;shape=mxgraph.basic.pointed_oval;fillColor=#ffbe6f;fontColor=#ffffff;strokeColor=#001DBC;" parent="1" vertex="1">
          <mxGeometry x="476" y="386" width="39" height="43" as="geometry" />
        </mxCell>
        <mxCell id="swc9gBFVzG4A3WIDZRH3-47" value="&lt;font color=&quot;#ffffff&quot;&gt;OUT&lt;/font&gt;" style="rounded=1;whiteSpace=wrap;html=1;fillColor=#241f31;" parent="1" vertex="1">
          <mxGeometry x="610" y="309" width="120" height="60" as="geometry" />
        </mxCell>
        <mxCell id="swc9gBFVzG4A3WIDZRH3-48" value="" style="endArrow=classic;html=1;rounded=0;exitX=1;exitY=0.5;exitDx=0;exitDy=0;entryX=0;entryY=0.5;entryDx=0;entryDy=0;" parent="1" source="swc9gBFVzG4A3WIDZRH3-41" target="swc9gBFVzG4A3WIDZRH3-47" edge="1">
          <mxGeometry width="50" height="50" relative="1" as="geometry">
            <mxPoint x="400" y="360" as="sourcePoint" />
            <mxPoint x="450" y="310" as="targetPoint" />
          </mxGeometry>
        </mxCell>
      </root>
    </mxGraphModel>
  </diagram>
</mxfile>
